<?xml version="1.0" standalone="no"?>
<!DOCTYPE svg PUBLIC "-//W3C//DTD SVG 20010904//EN"
 "http://www.w3.org/TR/2001/REC-SVG-20010904/DTD/svg10.dtd">
<svg version="1.0" xmlns="http://www.w3.org/2000/svg"
 width="700.000000pt" height="700.000000pt" viewBox="0 0 700.000000 700.000000"
 preserveAspectRatio="xMidYMid meet">
<metadata>
Created by potrace 1.11, written by Peter Selinger 2001-2013
</metadata>
<g transform="translate(0.00000,700.000000) scale(0.090000,-0.10000)"
fill="#000000" stroke="none">
  
  <!-- First M, shifted slightly right -->
  <g transform="translate(200,0)">
    <path d="M250 3500 l0 -1450 361 0 362 0 -7 813 c-3 446 -7 828 -10 847 -2 19
    -6 91 -9 160 l-6 125 35 -115 c19 -63 41 -137 49 -165 7 -27 64 -225 125 -440
    61 -214 163 -574 227 -800 64 -225 117 -411 119 -413 1 -2 173 -6 382 -8 l379
    -4 21 72 c21 72 177 623 211 748 75 270 124 442 215 760 l105 365 -4 -230 c-3
    -126 -7 -564 -10 -972 l-6 -743 375 0 376 0 0 1450 0 1450 -532 -2 -532 -3
    -229 -795 c-263 -916 -311 -1082 -327 -1130 -7 -19 -14 -41 -16 -49 -3 -8 -6
    -12 -9 -10 -2 2 -117 389 -255 859 -139 470 -270 917 -293 993 l-40 137 -529
    0 -528 0 0 -1450z"/>
  </g>

  <!-- Second M, shifted right together with first M -->
  <g transform="translate(3800,0)">
    <path d="M250 3500 l0 -1450 361 0 362 0 -7 813 c-3 446 -7 828 -10 847 -2 19
    -6 91 -9 160 l-6 125 35 -115 c19 -63 41 -137 49 -165 7 -27 64 -225 125 -440
    61 -214 163 -574 227 -800 64 -225 117 -411 119 -413 1 -2 173 -6 382 -8 l379
    -4 21 72 c21 72 177 623 211 748 75 270 124 442 215 760 l105 365 -4 -230 c-3
    -126 -7 -564 -10 -972 l-6 -743 375 0 376 0 0 1450 0 1450 -532 -2 -532 -3
    -229 -795 c-263 -916 -311 -1082 -327 -1130 -7 -19 -14 -41 -16 -49 -3 -8 -6
    -12 -9 -10 -2 2 -117 389 -255 859 -139 470 -270 917 -293 993 l-40 137 -529
    0 -528 0 0 -1450z"/>
  </g>

</g>
</svg>
