<svg xmlns="http://www.w3.org/2000/svg" width="256" height="256" viewBox="0 0 100 100"><rect width="100" height="100" rx="0" fill="#ffffff"></rect><path fill="#0b0000" d="M45.99 31.08Q45.99 34.10 43.87 46.84Q41.75 59.57 41.75 64.93Q41.75 70.30 43.84 72.66L43.84 72.66Q42.14 74.64 40.05 74.64L40.05 74.64Q35.76 74.64 35.76 67.38L35.76 67.38Q35.76 64.41 37.74 51.62Q39.72 38.83 39.72 33.55L39.72 33.55Q31.63 49.78 30.26 54.04Q28.88 58.30 28.88 60.28L28.88 60.28Q28.88 60.72 28.99 61.60L28.99 61.60Q28.61 62.10 27.48 62.48Q26.35 62.87 25.20 62.87L25.20 62.87Q22.78 62.87 21.48 61.30Q20.19 59.73 19.15 55.47Q18.10 51.21 16.73 45.16Q15.35 39.11 14.20 34.87L14.20 34.87Q14.09 35.92 12.13 47.94Q10.18 59.95 10.18 65.13Q10.18 70.30 12.33 72.66L12.33 72.66Q11.56 74.64 9.30 74.64L9.30 74.64Q5.29 74.64 5.29 67.38L5.29 67.38Q5.29 64.35 7.24 51.68Q9.19 39.00 9.19 33.97Q9.19 28.93 8.04 26.62L8.04 26.62Q9.30 25.36 11.89 25.39Q14.47 25.41 16.31 26.87Q18.16 28.33 19.17 31.66Q20.19 34.98 21.87 42.90Q23.55 50.82 25.20 56.10L25.20 56.10Q26.41 52.80 29.60 46.12Q32.79 39.44 34.99 34.30Q37.19 29.15 37.19 26.90L37.19 26.90Q38.95 25.36 42.25 25.36L42.25 25.36Q44.12 25.36 45.05 26.71Q45.99 28.05 45.99 31.08ZM94.72 31.08Q94.72 34.10 92.60 46.84Q90.48 59.57 90.48 64.93Q90.48 70.30 92.57 72.66L92.57 72.66Q90.87 74.64 88.78 74.64L88.78 74.64Q84.48 74.64 84.48 67.38L84.48 67.38Q84.48 64.41 86.47 51.62Q88.44 38.83 88.44 33.55L88.44 33.55Q80.36 49.78 78.98 54.04Q77.61 58.30 77.61 60.28L77.61 60.28Q77.61 60.72 77.72 61.60L77.72 61.60Q77.34 62.10 76.21 62.48Q75.08 62.87 73.92 62.87L73.92 62.87Q71.50 62.87 70.21 61.30Q68.92 59.73 67.88 55.47Q66.83 51.21 65.45 45.16Q64.08 39.11 62.92 34.87L62.92 34.87Q62.81 35.92 60.86 47.94Q58.91 59.95 58.91 65.13Q58.91 70.30 61.05 72.66L61.05 72.66Q60.28 74.64 58.03 74.64L58.03 74.64Q54.02 74.64 54.02 67.38L54.02 67.38Q54.02 64.35 55.97 51.68Q57.92 39.00 57.92 33.97Q57.92 28.93 56.77 26.62L56.77 26.62Q58.03 25.36 60.62 25.39Q63.20 25.41 65.04 26.87Q66.89 28.33 67.90 31.66Q68.92 34.98 70.60 42.90Q72.28 50.82 73.92 56.10L73.92 56.10Q75.14 52.80 78.33 46.12Q81.52 39.44 83.72 34.30Q85.91 29.15 85.91 26.90L85.91 26.90Q87.67 25.36 90.97 25.36L90.97 25.36Q92.84 25.36 93.78 26.71Q94.72 28.05 94.72 31.08Z"></path></svg>