<svg xmlns="http://www.w3.org/2000/svg" viewBox="0 12.800000190734863 81.30000305175781 44.79999923706055" data-asc="1.145" width="81.30000305175781" height="44.79999923706055"><defs/><g fill="#000000"><g transform="translate(0, 0)"><path d="M3.65 57.60Q2.10 57.60 1.05 56.20Q0 54.80 0 51Q0 49.20 0.35 46.38Q0.70 43.55 1.25 40.15Q1.80 36.75 2.33 33.22Q2.85 29.70 3.20 26.45Q3.55 23.20 3.55 20.70Q3.55 18.90 3.40 17.17Q3.25 15.45 2.50 13.95Q3 13.45 3.85 13.13Q4.70 12.80 5.75 12.80Q8.15 12.85 9.90 14.05Q11.65 15.25 12.75 18.95Q13.70 21.95 14.38 25.30Q15.05 28.65 15.90 32.47Q16.75 36.30 18.10 40.75Q19 38.30 20.38 35.33Q21.75 32.35 23.25 29.22Q24.75 26.10 26.05 23.20Q27.35 20.30 28.18 17.95Q29 15.60 29 14.20Q29.55 13.70 30.75 13.25Q31.95 12.80 33.60 12.80Q35.25 12.80 36.13 13.97Q37.00 15.15 37.00 18.10Q37.00 19.95 36.60 22.75Q36.20 25.55 35.65 28.92Q35.10 32.30 34.53 35.85Q33.95 39.40 33.55 42.77Q33.15 46.15 33.15 48.95Q33.15 50.90 33.50 52.67Q33.85 54.45 35.05 55.80Q34.10 56.90 33.18 57.25Q32.25 57.60 31.60 57.60Q29.85 57.60 28.78 56.20Q27.70 54.80 27.70 51Q27.70 49.20 28.08 46.35Q28.45 43.50 28.98 40.10Q29.50 36.70 30.03 33.15Q30.55 29.60 30.93 26.25Q31.30 22.90 31.30 20.25Q29.70 23.50 28 26.92Q26.30 30.35 24.90 33.45Q23.50 36.55 22.70 39Q22.20 40.45 21.83 41.85Q21.45 43.25 21.45 44.55Q21.45 44.85 21.48 45.15Q21.50 45.45 21.55 45.75Q21.20 46.20 20.20 46.55Q19.20 46.90 18.10 46.90Q16.70 46.90 15.72 46.38Q14.75 45.85 13.97 44.20Q13.20 42.55 12.35 39.15Q11.65 36.30 11.15 34.10Q10.65 31.90 10.22 29.97Q9.80 28.05 9.30 26.02Q8.80 24 8.10 21.45Q7.80 24.15 7.20 27.65Q6.60 31.15 5.97 34.95Q5.35 38.75 4.90 42.38Q4.45 46 4.45 48.95Q4.45 50.90 4.80 52.67Q5.15 54.45 6.40 55.80Q6 56.90 5.15 57.25Q4.30 57.60 3.65 57.60ZM47.95 57.60Q46.40 57.60 45.35 56.20Q44.30 54.80 44.30 51Q44.30 49.20 44.65 46.38Q45.00 43.55 45.55 40.15Q46.10 36.75 46.63 33.22Q47.15 29.70 47.50 26.45Q47.85 23.20 47.85 20.70Q47.85 18.90 47.70 17.17Q47.55 15.45 46.80 13.95Q47.30 13.45 48.15 13.13Q49.00 12.80 50.05 12.80Q52.45 12.85 54.20 14.05Q55.95 15.25 57.05 18.95Q58.00 21.95 58.68 25.30Q59.35 28.65 60.20 32.47Q61.05 36.30 62.40 40.75Q63.30 38.30 64.68 35.33Q66.05 32.35 67.55 29.22Q69.05 26.10 70.35 23.20Q71.65 20.30 72.48 17.95Q73.30 15.60 73.30 14.20Q73.85 13.70 75.05 13.25Q76.25 12.80 77.90 12.80Q79.55 12.80 80.43 13.97Q81.30 15.15 81.30 18.10Q81.30 19.95 80.90 22.75Q80.50 25.55 79.95 28.92Q79.40 32.30 78.83 35.85Q78.25 39.40 77.85 42.77Q77.45 46.15 77.45 48.95Q77.45 50.90 77.80 52.67Q78.15 54.45 79.35 55.80Q78.40 56.90 77.48 57.25Q76.55 57.60 75.90 57.60Q74.15 57.60 73.08 56.20Q72 54.80 72 51Q72 49.20 72.38 46.35Q72.75 43.50 73.28 40.10Q73.80 36.70 74.33 33.15Q74.85 29.60 75.23 26.25Q75.60 22.90 75.60 20.25Q74 23.50 72.30 26.92Q70.60 30.35 69.20 33.45Q67.80 36.55 67 39Q66.50 40.45 66.13 41.85Q65.75 43.25 65.75 44.55Q65.75 44.85 65.78 45.15Q65.80 45.45 65.85 45.75Q65.50 46.20 64.50 46.55Q63.50 46.90 62.40 46.90Q61.00 46.90 60.03 46.38Q59.05 45.85 58.28 44.20Q57.50 42.55 56.65 39.15Q55.95 36.30 55.45 34.10Q54.95 31.90 54.53 29.97Q54.10 28.05 53.60 26.02Q53.10 24 52.40 21.45Q52.10 24.15 51.50 27.65Q50.90 31.15 50.28 34.95Q49.65 38.75 49.20 42.38Q48.75 46 48.75 48.95Q48.75 50.90 49.10 52.67Q49.45 54.45 50.70 55.80Q50.30 56.90 49.45 57.25Q48.60 57.60 47.95 57.60Z"/></g></g></svg>